<?xml version="1.0" encoding="UTF-8"?> <svg xmlns="http://www.w3.org/2000/svg" width="26" height="17" viewBox="0 0 26 17" fill="none"> <path d="M0.448296 17H25.5517C25.7993 17 26 16.7997 26 16.5526V0.447388C26 0.200331 25.7993 0 25.5517 0H0.448296C0.200738 5.06783e-05 0 0.200331 0 0.447388V16.5526C0 16.7997 0.200738 17 0.448296 17Z" fill="#C8414B"></path> <path d="M26 3.5791H0V13.4213H26V3.5791Z" fill="#FFD250"></path> <path d="M10.9826 8.50002L11.3627 6.79312C11.3978 6.63591 11.2779 6.48682 11.1165 6.48682H10.8488C10.6874 6.48682 10.5676 6.63591 10.6025 6.79312L10.9826 8.50002Z" fill="#C8414B"></path> <path d="M11.4312 7.60498H10.5347V11.4074H11.4312V7.60498Z" fill="#F5F5F5"></path> <path d="M11.6549 7.1582H10.3101V7.6065H11.6549V7.1582Z" fill="#FAB446"></path> <path d="M11.6553 8.50049H9.41382V8.94879H11.6553V8.50049Z" fill="#C8414B"></path> <path d="M11.6551 10.2897L10.3103 9.84241V9.39502L11.6551 9.84241V10.2897Z" fill="#C8414B"></path> <path d="M4.2585 8.50002L4.6386 6.79312C4.67364 6.63591 4.55374 6.48682 4.39236 6.48682H4.12464C3.96331 6.48682 3.84347 6.63591 3.8784 6.79312L4.2585 8.50002Z" fill="#C8414B"></path> <path d="M5.82769 7.15771C5.58013 7.15771 5.37939 7.35805 5.37939 7.6051V10.513C5.37939 11.0565 5.88771 12.0788 7.62078 12.0788C9.35384 12.0788 9.86216 11.0566 9.86216 10.513V7.6051C9.86216 7.35805 9.66142 7.15771 9.41386 7.15771H5.82769V7.15771Z" fill="#F5F5F5"></path> <path d="M7.62078 9.39456H5.37939V7.6051C5.37939 7.35805 5.58013 7.15771 5.82769 7.15771H7.62078V9.39456Z" fill="#C8414B"></path> <path d="M7.62061 9.39502H9.86199V10.5134C9.86199 11.1312 9.36027 11.6319 8.7413 11.6319C8.12232 11.6319 7.62061 11.1312 7.62061 10.5134V9.39502V9.39502Z" fill="#C8414B"></path> <path d="M5.37939 9.39453H7.62078V10.513C7.62078 11.1307 7.11906 11.6314 6.50009 11.6314C5.88111 11.6314 5.37939 11.1307 5.37939 10.513V9.39453V9.39453Z" fill="#FAB446"></path> <path d="M7.17242 11.4027V9.39453H6.72412V11.6088C6.89089 11.5751 7.04155 11.5014 7.17242 11.4027Z" fill="#C8414B"></path> <path d="M6.27569 11.6088V9.39453H5.82739V11.4027C5.95831 11.5014 6.10897 11.5751 6.27569 11.6088Z" fill="#C8414B"></path> <path d="M7.17248 8.50049H5.82764V8.94879H7.17248V8.50049Z" fill="#FFB441"></path> <path d="M7.17248 7.60498H5.82764V8.05328H7.17248V7.60498Z" fill="#FAB446"></path> <path d="M6.94806 7.87109H6.05151V8.68154H6.94806V7.87109Z" fill="#FAB446"></path> <path d="M4.7066 7.60498H3.81006V11.4074H4.7066V7.60498Z" fill="#F5F5F5"></path> <path d="M4.93102 11.1851H3.58618V11.6334H4.93102V11.1851Z" fill="#FAB446"></path> <path d="M4.93102 7.1582H3.58618V7.6065H4.93102V7.1582Z" fill="#FAB446"></path> <path d="M5.15539 11.6313H3.3623V12.0796H5.15539V11.6313Z" fill="#5064AA"></path> <path d="M11.8795 11.1846H10.5347V11.6329H11.8795V11.1846Z" fill="#FAB446"></path> <path d="M11.8793 11.6313H10.0862V12.0796H11.8793V11.6313Z" fill="#5064AA"></path> <path d="M8.9658 6.71045H6.27612V7.15875H8.9658V6.71045Z" fill="#FAB446"></path> <path d="M7.84503 5.36865H7.39673V6.71077H7.84503V5.36865Z" fill="#FFB441"></path> <path d="M7.17239 6.03933C6.80159 6.03933 6.5 5.7383 6.5 5.3683C6.5 4.99824 6.80164 4.69727 7.17239 4.69727C7.5432 4.69727 7.84479 4.9983 7.84479 5.3683C7.84484 5.7383 7.5432 6.03933 7.17239 6.03933ZM7.17239 5.1446C7.04874 5.1446 6.94825 5.24485 6.94825 5.3683C6.94825 5.4917 7.04869 5.59199 7.17239 5.59199C7.2961 5.59199 7.39654 5.49175 7.39654 5.3683C7.39654 5.2449 7.2961 5.1446 7.17239 5.1446Z" fill="#F5F5F5"></path> <path d="M8.06888 6.03933C7.69807 6.03933 7.39648 5.7383 7.39648 5.3683C7.39648 4.99824 7.69812 4.69727 8.06888 4.69727C8.43968 4.69727 8.74127 4.9983 8.74127 5.3683C8.74127 5.7383 8.43963 6.03933 8.06888 6.03933ZM8.06888 5.1446C7.94523 5.1446 7.84473 5.24485 7.84473 5.3683C7.84473 5.4917 7.94518 5.59199 8.06888 5.59199C8.19253 5.59199 8.29303 5.49175 8.29303 5.3683C8.29298 5.2449 8.19253 5.1446 8.06888 5.1446Z" fill="#F5F5F5"></path> <path d="M8.96561 6.48709C8.5948 6.48709 8.29321 6.18606 8.29321 5.81605C8.29321 5.446 8.59485 5.14502 8.96561 5.14502C9.33641 5.14502 9.638 5.44605 9.638 5.81605C9.638 6.18606 9.33636 6.48709 8.96561 6.48709ZM8.96561 5.59236C8.84195 5.59236 8.74146 5.6926 8.74146 5.81605C8.74146 5.93945 8.8419 6.03975 8.96561 6.03975C9.08926 6.03975 9.18976 5.93951 9.18976 5.81605C9.18976 5.6926 9.08926 5.59236 8.96561 5.59236Z" fill="#F5F5F5"></path> <path d="M6.27591 6.48709C5.90511 6.48709 5.60352 6.18606 5.60352 5.81605C5.60352 5.446 5.90516 5.14502 6.27591 5.14502C6.64671 5.14502 6.9483 5.44605 6.9483 5.81605C6.94836 6.18606 6.64671 6.48709 6.27591 6.48709ZM6.27591 5.59236C6.15226 5.59236 6.05176 5.6926 6.05176 5.81605C6.05176 5.93945 6.15221 6.03975 6.27591 6.03975C6.39961 6.03975 6.50006 5.93946 6.50006 5.816C6.50006 5.6926 6.39961 5.59236 6.27591 5.59236Z" fill="#F5F5F5"></path> <path d="M8.96544 10.2896V10.5133C8.96544 10.6367 8.86489 10.737 8.74129 10.737C8.61769 10.737 8.51714 10.6367 8.51714 10.5133V10.2896H8.96544ZM9.41369 9.84229H8.06885V10.5133C8.06885 10.8834 8.37049 11.1844 8.74124 11.1844C9.11205 11.1844 9.41364 10.8833 9.41364 10.5133V9.84229H9.41369Z" fill="#FAB446"></path> <path d="M8.74127 8.94715C8.49371 8.94715 8.29297 8.74682 8.29297 8.49976V8.05237C8.29297 7.80531 8.49371 7.60498 8.74127 7.60498C8.98882 7.60498 9.18956 7.80531 9.18956 8.05237V8.49976C9.18956 8.74682 8.98882 8.94715 8.74127 8.94715Z" fill="#FFA0D2"></path> <path d="M7.62088 10.0657C7.99223 10.0657 8.29328 9.76527 8.29328 9.39467C8.29328 9.02406 7.99223 8.72363 7.62088 8.72363C7.24953 8.72363 6.94849 9.02406 6.94849 9.39467C6.94849 9.76527 7.24953 10.0657 7.62088 10.0657Z" fill="#5064AA"></path> <path d="M7.84503 4.47314H7.39673V5.81526H7.84503V4.47314Z" fill="#FAB446"></path> <path d="M6.27569 6.71077L5.82739 6.26338L6.08998 6.00132C6.49588 5.59625 7.04645 5.36865 7.62053 5.36865C8.19461 5.36865 8.74513 5.59625 9.15108 6.00132L9.41367 6.26338L8.96537 6.71077H6.27569Z" fill="#C8414B"></path> <path d="M7.62063 6.48785C7.74443 6.48785 7.84478 6.38749 7.84478 6.2637C7.84478 6.1399 7.74443 6.03955 7.62063 6.03955C7.49684 6.03955 7.39648 6.1399 7.39648 6.2637C7.39648 6.38749 7.49684 6.48785 7.62063 6.48785Z" fill="#FFD250"></path> <path d="M6.7239 6.48785C6.8477 6.48785 6.94805 6.38749 6.94805 6.2637C6.94805 6.1399 6.8477 6.03955 6.7239 6.03955C6.60011 6.03955 6.49976 6.1399 6.49976 6.2637C6.49976 6.38749 6.60011 6.48785 6.7239 6.48785Z" fill="#FFD250"></path> <path d="M8.51712 6.48785C8.64091 6.48785 8.74127 6.38749 8.74127 6.2637C8.74127 6.1399 8.64091 6.03955 8.51712 6.03955C8.39332 6.03955 8.29297 6.1399 8.29297 6.2637C8.29297 6.38749 8.39332 6.48785 8.51712 6.48785Z" fill="#FFD250"></path> <path d="M5.82767 8.50049H3.58618V8.94879H5.82767V8.50049Z" fill="#C8414B"></path> <path d="M3.58618 10.2897L4.93097 9.84241V9.39502L3.58618 9.84241V10.2897Z" fill="#C8414B"></path> </svg> 