<svg width="106" height="100" xmlns="http://www.w3.org/2000/svg">
 <style type="text/css">.st0{fill:#FFFFFF;}
	.st1{fill:#006AB2;}</style>

 <g>
  <title>background</title>
  <rect fill="none" id="canvas_background" height="5.375" width="5.4375" y="-1" x="-1"></rect>
 </g>
 <g>
  <title>Layer 1</title>
  <g id="svg_1">
   <g id="svg_2">
    <g id="svg_3">
     <path id="svg_4" d="m94.4,33.3c5.2,22.5 -8.9,45 -31.6,50.2c-22.7,5.2 -45.3,-8.9 -50.5,-31.4c-5.2,-22.5 8.9,-45 31.6,-50.2c22.7,-5.2 45.3,8.8 50.5,31.4z" class="st0"></path>
     <path id="svg_5" d="m53.3,85.2c-9.5,0 -18.9,-3.2 -26.4,-9.1c-7.6,-6 -13,-14.4 -15.2,-23.8c-2.6,-11.1 -0.6,-22.4 5.4,-32.1c6,-9.6 15.5,-16.3 26.6,-18.9c3.2,-0.7 6.4,-1.1 9.6,-1.1c9.5,0 18.9,3.2 26.4,9.1c7.6,6 13,14.4 15.2,23.8c2.6,11.1 0.6,22.4 -5.4,32.1c-6,9.6 -15.5,16.3 -26.6,18.9c-3.1,0.7 -6.4,1.1 -9.6,1.1zm0.1,-83.8c-3.1,0 -6.3,0.4 -9.4,1.1c-22.3,5.1 -36.2,27.3 -31.1,49.5c4.4,18.9 21,32 40.4,32c3.1,0 6.3,-0.4 9.4,-1.1c22.3,-5.1 36.3,-27.3 31.1,-49.5c-4.4,-18.9 -21,-32 -40.4,-32z" class="st1"></path>
    </g>
    <g id="svg_6">
     <path id="svg_7" d="m92.2,33.8c4.9,21.3 -8.4,42.6 -29.8,47.5c-21.4,4.9 -42.8,-8.4 -47.7,-29.7c-5.1,-21.3 8.3,-42.6 29.7,-47.5c21.4,-4.9 42.8,8.4 47.8,29.7z" class="st0"></path>
     <path id="svg_8" d="m53.3,82.6c-8.9,0 -17.7,-3 -24.8,-8.6c-7.2,-5.6 -12.2,-13.6 -14.3,-22.4c-2.4,-10.4 -0.6,-21.1 5.1,-30.1c5.7,-9 14.6,-15.3 25,-17.7c3,-0.7 6,-1 9.1,-1c8.9,0 17.7,3 24.8,8.6c7.2,5.6 12.2,13.6 14.3,22.4c5,21.4 -8.5,42.9 -30.1,47.9c-3,0.6 -6,0.9 -9.1,0.9zm0.1,-79.2c-3,0 -6,0.3 -8.9,1c-10.3,2.4 -19,8.6 -24.6,17.5c-5.6,8.9 -7.4,19.5 -5,29.7c4.1,17.9 19.9,30.4 38.4,30.4c3,0 6,-0.3 8.9,-1c21.2,-4.9 34.5,-26 29.6,-47.2c-4.1,-17.9 -19.9,-30.4 -38.4,-30.4z" class="st1"></path>
    </g>
    <g id="svg_9">
     <path id="svg_10" d="m80.1,36.6c3.4,14.7 -5.8,29.4 -20.6,32.7c-14.7,3.4 -29.5,-5.8 -32.9,-20.5c-3.4,-14.7 5.8,-29.4 20.6,-32.7c14.8,-3.4 29.5,5.8 32.9,20.5z" class="st0"></path>
     <path id="svg_11" d="m53.3,70.2c-6.1,0 -12.2,-2.1 -17.1,-5.9c-4.9,-3.9 -8.4,-9.3 -9.8,-15.4c-3.4,-14.8 5.9,-29.6 20.7,-33c2.1,-0.5 4.2,-0.7 6.2,-0.7c6.1,0 12.2,2.1 17.1,5.9c4.9,3.9 8.4,9.3 9.8,15.4c3.4,14.8 -5.9,29.6 -20.7,33c-2,0.5 -4.1,0.7 -6.2,0.7zm0.1,-54.6c-2.1,0 -4.1,0.2 -6.1,0.7c-14.6,3.4 -23.8,17.9 -20.4,32.5c2.9,12.4 13.8,21 26.5,21c2.1,0 4.1,-0.2 6.1,-0.7c14.6,-3.4 23.8,-17.9 20.4,-32.5c-2.9,-12.4 -13.8,-21 -26.5,-21z" class="st1"></path>
    </g>
    <g id="svg_12">
     <path id="svg_13" d="m77.7,37.1c3.1,13.4 -5.3,26.8 -18.7,29.9c-13.5,3 -26.9,-5.3 -30,-18.7c-3.1,-13.4 5.3,-26.8 18.8,-29.9c13.4,-3.1 26.8,5.3 29.9,18.7z" class="st1"></path>
     <path id="svg_14" d="m53.3,67.7c-5.6,0 -11.1,-1.9 -15.5,-5.4c-4.5,-3.5 -7.7,-8.5 -8.9,-14c-1.5,-6.5 -0.4,-13.2 3.2,-18.9c3.6,-5.7 9.1,-9.6 15.7,-11.1c1.9,-0.4 3.8,-0.6 5.7,-0.6c5.6,0 11.1,1.9 15.5,5.4c4.5,3.5 7.7,8.5 8.9,14c1.5,6.5 0.4,13.2 -3.2,18.9c-3.6,5.6 -9.2,9.5 -15.7,11c-1.9,0.5 -3.8,0.7 -5.7,0.7zm0.1,-49.8c-1.9,0 -3.8,0.2 -5.6,0.6c-6.5,1.5 -12,5.4 -15.5,11c-3.5,5.6 -4.6,12.3 -3.2,18.7c2.6,11.3 12.6,19.2 24.3,19.2c1.9,0 3.8,-0.2 5.6,-0.6c6.5,-1.5 12,-5.4 15.5,-11c3.5,-5.6 4.6,-12.3 3.2,-18.7c-2.7,-11.3 -12.7,-19.2 -24.3,-19.2z" class="st0"></path>
    </g>
    <g id="svg_15">
     <path id="svg_16" d="m105.8,44.4l-98.8,22.7l-7,-30l98.8,-22.7l7,30z" class="st1"></path>
     <path id="svg_17" d="m6.9,67.2l-7,-30.2l0.1,0l98.9,-22.7l7,30.2l-0.1,0l-98.9,22.7zm-6.8,-30l6.9,29.8l98.6,-22.6l-6.9,-29.8l-98.6,22.6z" class="st0"></path>
    </g>
    <g id="svg_18">
     <path id="svg_19" d="m20.3,25.1l0.9,-1.3l3.3,1.5c0.3,0.1 0.6,0.3 1,0.5c0.4,0.2 0.7,0.4 1.2,0.6l-4.4,-4.2l0.7,-1.1l5.5,2.5c-0.3,-0.2 -0.6,-0.4 -0.9,-0.6c-0.3,-0.2 -0.6,-0.5 -0.8,-0.7l-2.8,-2.6l0.9,-1.3l5.6,5.7l-0.8,1.1l-4.1,-1.7c-0.2,-0.1 -0.4,-0.2 -0.7,-0.3c-0.3,-0.1 -0.6,-0.3 -0.9,-0.5c0.3,0.2 0.6,0.5 0.8,0.7c0.2,0.2 0.4,0.4 0.5,0.5l3.1,3.1l-0.8,1.2l-7.3,-3.1z" class="st1"></path>
     <path id="svg_20" d="m31.7,22.7l-5.5,-5.6l2.4,-2.3l1,1l-1.3,1.2l1.1,1.1l1.2,-1.1l1,1l-1.2,1.1l1.3,1.3l1.3,-1.2l1.1,1.1l-2.4,2.4z" class="st1"></path>
     <path id="svg_21" d="m34.8,19.9l-4.5,-6.4l1.3,-0.9c0.8,-0.6 1.5,-0.9 2.1,-0.8c0.5,0 1,0.3 1.4,1c0.2,0.4 0.4,0.7 0.4,1c0,0.3 -0.1,0.6 -0.2,1c0.4,-0.1 0.7,-0.1 1.1,0c0.3,0.1 0.6,0.4 0.9,0.8c0.2,0.3 0.3,0.6 0.4,0.9c0.1,0.3 0.1,0.6 0,0.9c-0.1,0.3 -0.2,0.6 -0.4,0.8c-0.2,0.3 -0.6,0.6 -1.2,1l-1.3,0.7zm-1.4,-4.7l0.1,-0.1c0.3,-0.2 0.5,-0.5 0.6,-0.7c0.1,-0.2 0,-0.5 -0.2,-0.8c-0.2,-0.3 -0.4,-0.4 -0.7,-0.5c-0.3,0 -0.5,0.1 -0.9,0.3l-0.1,0.1l1.2,1.7zm1.8,2.7c0,-0.1 0.1,-0.1 0,0c0.1,-0.1 0.2,-0.1 0.2,-0.1c0.3,-0.2 0.5,-0.5 0.6,-0.7c0.1,-0.2 0,-0.5 -0.2,-0.8c-0.2,-0.3 -0.4,-0.5 -0.7,-0.5c-0.2,0 -0.5,0.1 -0.9,0.3l-0.2,0.1l1.2,1.7z" class="st1"></path>
     <path id="svg_22" d="m40.7,16l-1.7,-7.7l1.9,-0.6l1.3,2.7c0.2,0.4 0.4,0.8 0.6,1.2c0.2,0.4 0.3,0.8 0.5,1.1c-0.2,-0.7 -0.3,-1.2 -0.4,-1.6c-0.1,-0.4 -0.1,-0.7 -0.2,-0.9l-0.5,-3l1.9,-0.6l3.1,7.2l-1.5,0.5l-1.2,-3.3c0,-0.1 -0.1,-0.2 -0.1,-0.4c-0.4,-0.9 -0.7,-1.6 -0.9,-2.2l1,6.4l-1.1,0.4l-2.9,-5.8c0.2,0.5 0.4,1.2 0.6,2.2c0.1,0.2 0.1,0.4 0.1,0.5l0.9,3.5l-1.4,0.4z" class="st1"></path>
     <path id="svg_23" d="m52.1,13.4l0.1,-7.8l1.3,0c1.2,0 2.1,0.4 2.7,1c0.6,0.7 0.9,1.6 0.8,3c0,0.8 -0.1,1.5 -0.4,2c-0.2,0.5 -0.6,1 -1,1.3c-0.3,0.2 -0.6,0.4 -0.9,0.4c-0.4,0.1 -0.8,0.1 -1.5,0.1l-1.1,0zm1.6,-1.4l0.1,0c0.6,0 1,-0.2 1.3,-0.6c0.3,-0.4 0.5,-1 0.5,-1.8c0,-0.9 -0.1,-1.5 -0.4,-1.9c-0.3,-0.4 -0.7,-0.6 -1.3,-0.6l-0.1,0l-0.1,4.9z" class="st1"></path>
     <path id="svg_24" d="m57.6,13.7l1.3,-7.7l1.6,0.3l-1.3,7.7l-1.6,-0.3z" class="st1"></path>
     <path id="svg_25" d="m63.9,15.3c-0.2,0 -0.3,0 -0.5,0c-0.2,0 -0.3,0 -0.5,-0.1c-1,-0.3 -1.6,-0.9 -2,-1.7c-0.4,-0.9 -0.4,-1.9 -0.1,-3c0.4,-1.2 0.9,-2 1.7,-2.6c0.8,-0.5 1.7,-0.7 2.6,-0.4c0.2,0.1 0.3,0.1 0.5,0.2c0.1,0.1 0.3,0.2 0.4,0.3l-0.4,1.4c-0.1,-0.1 -0.3,-0.2 -0.4,-0.3c0,-0.1 -0.1,-0.1 -0.3,-0.2c-0.5,-0.2 -1,-0.1 -1.4,0.3c-0.4,0.3 -0.8,0.9 -1,1.6c-0.2,0.7 -0.2,1.3 0,1.8c0.2,0.5 0.5,0.9 1,1c0.1,0 0.3,0.1 0.4,0.1c0.1,0 0.3,0 0.4,0l-0.4,1.6z" class="st1"></path>
     <path id="svg_26" d="m64,15.3l5.1,-6.2l1.5,0.7l-1.9,7.8l-1.4,-0.6l0.4,-1.3l-1.4,-0.7l-0.9,1l-1.4,-0.7zm3,-1.3l0.9,0.5c0.1,-0.5 0.3,-1.1 0.5,-1.7c0.2,-0.6 0.4,-1.2 0.6,-1.8c-0.3,0.5 -0.7,1 -1,1.5c-0.2,0.4 -0.6,0.9 -1,1.5z" class="st1"></path>
     <path id="svg_27" d="m48,13.8l-0.9,-7.8l3.3,-0.4l0.2,1.4l-1.8,0.2l0.2,1.6l1.6,-0.2l0.2,1.4l-1.6,0.2l0.2,1.8l1.8,-0.2l0.2,1.5l-3.4,0.5z" class="st1"></path>
    </g>
    <g id="svg_28">
     <path id="svg_29" d="m34.1,74.7l5.2,-6.1l1.5,0.7l-2,7.8l-1.4,-0.7l0.4,-1.3l-1.4,-0.7l-0.8,1.1l-1.5,-0.8zm3,-1.4l0.9,0.5c0.2,-0.5 0.3,-1.1 0.5,-1.7c0.2,-0.6 0.4,-1.2 0.7,-1.8c-0.3,0.5 -0.7,1 -1,1.5c-0.4,0.5 -0.7,1 -1.1,1.5z" class="st1"></path>
     <path id="svg_30" d="m44.1,78.7c-0.2,0 -0.3,0 -0.5,0c-0.2,0 -0.3,0 -0.5,-0.1c-1,-0.3 -1.6,-0.9 -2,-1.7c-0.4,-0.9 -0.4,-1.9 -0.1,-3c0.4,-1.2 0.9,-2 1.7,-2.6c0.8,-0.5 1.7,-0.7 2.6,-0.4c0.2,0.1 0.3,0.1 0.5,0.2c0.1,0.1 0.3,0.2 0.4,0.3l-0.4,1.4c-0.1,-0.1 -0.3,-0.2 -0.4,-0.3c-0.1,-0.1 -0.3,-0.1 -0.4,-0.2c-0.5,-0.2 -1,-0.1 -1.4,0.3c-0.4,0.3 -0.8,0.9 -1,1.6c-0.2,0.7 -0.2,1.3 0,1.8c0.2,0.5 0.5,0.9 1,1c0.1,0 0.3,0.1 0.4,0.1c0.1,0 0.3,0 0.4,0l-0.3,1.6z" class="st1"></path>
     <path id="svg_31" d="m45.9,79.1l1.1,-7.7l1.6,0.2c0.9,0.1 1.5,0.4 1.9,0.8c0.4,0.4 0.5,1 0.4,1.7c-0.1,0.6 -0.2,1 -0.5,1.3c-0.2,0.3 -0.6,0.5 -1,0.6l1,3.7l-1.6,-0.2l-0.8,-3.4l-0.4,3.2l-1.7,-0.2zm2.1,-4.2c0,0 0,0 0,0c0.1,0 0.2,0 0.2,0c0.3,0 0.6,0 0.8,-0.2c0.2,-0.2 0.3,-0.4 0.4,-0.8c0,-0.4 0,-0.7 -0.1,-0.8c-0.1,-0.2 -0.4,-0.3 -0.7,-0.4c-0.1,0 -0.1,0 -0.1,0c0,0 -0.1,0 -0.1,0l-0.4,2.2z" class="st1"></path>
     <path id="svg_32" d="m51.5,79.8l0.3,-7.8l3.3,0.1l-0.1,1.4l-1.8,-0.1l0,1.6l1.6,0.1l0,1.4l-1.6,-0.1l-0.2,1.9l1.8,0.1l-0.1,1.5l-3.2,-0.1z" class="st1"></path>
     <path id="svg_33" d="m56.8,79.9l-1,-7.8l1.3,-0.2c1.2,-0.2 2.1,0 2.8,0.6c0.7,0.6 1.1,1.5 1.3,2.8c0.1,0.8 0.1,1.5 -0.1,2c-0.1,0.6 -0.4,1 -0.8,1.5c-0.2,0.2 -0.5,0.4 -0.9,0.6c-0.3,0.1 -0.8,0.2 -1.5,0.3l-1.1,0.2zm1.3,-1.7l0.1,0c0.6,-0.1 0.9,-0.3 1.2,-0.8c0.2,-0.5 0.3,-1.1 0.2,-1.9c-0.1,-0.8 -0.3,-1.5 -0.7,-1.8c-0.3,-0.4 -0.8,-0.5 -1.4,-0.4l-0.1,0l0.7,4.9z" class="st1"></path>
     <path id="svg_34" d="m63.6,78.6l-2.4,-7.4l1.5,-0.5l2.4,7.4l-1.5,0.5z" class="st1"></path>
     <path id="svg_35" d="m67.7,77.1l-2.7,-5.8l-1.1,0.5l-0.6,-1.3l3.6,-1.7l0.6,1.3l-1.1,0.5l2.7,5.8l-1.4,0.7z" class="st1"></path>
     <path id="svg_36" d="m70.6,75.8l-2.4,-7.7l1.4,-0.8l5.5,5.9l-1.4,0.8l-0.9,-1.1l-1.4,0.8l0.5,1.3l-1.3,0.8zm0.5,-3.3l0.9,-0.5c-0.4,-0.4 -0.7,-0.9 -1.1,-1.3c-0.4,-0.5 -0.8,-1 -1.2,-1.5c0.2,0.5 0.5,1.1 0.7,1.7c0.2,0.4 0.4,1 0.7,1.6z" class="st1"></path>
     <path id="svg_37" d="m76.4,72.2l-5.3,-5.8l1,-0.9c0.9,-0.8 1.8,-1.2 2.7,-1.1c0.9,0.1 1.8,0.6 2.6,1.6c0.5,0.6 0.9,1.2 1.1,1.7c0.2,0.5 0.2,1.1 0.1,1.7c-0.1,0.3 -0.2,0.7 -0.4,1c-0.2,0.3 -0.5,0.7 -1,1.1l-0.8,0.7zm0.2,-2.1l0,0c0.5,-0.5 0.7,-0.9 0.6,-1.4c-0.1,-0.5 -0.4,-1.1 -0.9,-1.6c-0.6,-0.6 -1.1,-1 -1.6,-1.1c-0.5,-0.1 -1,0 -1.4,0.4l-0.1,0.1l3.4,3.6z" class="st1"></path>
     <path id="svg_38" d="m80.9,68l-5.2,-6.1l1,-1.3l7.4,3.2l-1,1.2l-1.3,-0.6l-0.9,1.3l1,1l-1,1.3zm-0.8,-3.2l0.6,-0.8c-0.5,-0.2 -1,-0.5 -1.6,-0.8c-0.5,-0.3 -1.1,-0.6 -1.7,-0.9c0.4,0.4 0.9,0.8 1.3,1.3c0.5,0.3 0.9,0.7 1.4,1.2z" class="st1"></path>
    </g>
   </g>
  </g>
  <g id="svg_39">
   <g id="svg_40">
    <path id="svg_41" d="m21.2,57.8c-4,2.5 -3.1,4.9 -2.7,5.2c0.1,-0.2 -0.1,-1.5 4.1,-3.6c6.4,-3.3 2.8,-7.2 2,-7c0.2,1.4 0.6,2.9 -3.4,5.4m-2.5,-6.8c-0.2,-1.2 0.8,-2.2 1.9,-3.1c-1.2,0.8 0,0 0,0c0,0 0,0 0,0c0,0 0,0 0,0c0.6,-0.4 1.3,-0.9 2,-1.6c1.8,-1.9 0.2,-4.3 -0.7,-4.2c0.2,1.2 -0.8,2.2 -1.9,3.1c1.2,-0.8 0,0 0,0c0,0 0,0 0,0c0,0 0,0 0,0c-0.6,0.4 -1.3,0.9 -2,1.6c-1.9,1.9 -0.2,4.3 0.7,4.2m1.4,4.7c-0.1,-1.1 0.7,-2 1.7,-2.7c-1.1,0.7 0,0 0,0c0,0 0,0 0,0c0,0 0,0 0,0c0.6,-0.4 1.2,-0.8 1.8,-1.4c1.6,-1.7 0.2,-3.8 -0.6,-3.7c0.1,1.1 -0.7,2 -1.7,2.7c1.1,-0.7 0,0 0,0c0,0 0,0 0,0c0,0 0,0 0,0c-0.6,0.4 -1.3,0.8 -1.8,1.4c-1.6,1.7 -0.2,3.8 0.6,3.7m3.6,-20.7c0,0 0,0 0,0c0,0 -0.1,-0.1 -0.1,-0.1c-0.2,-0.2 -0.5,-0.5 -0.9,-0.4c-0.1,0 -0.1,0 -0.1,0.1c-0.2,0.2 -0.4,0.4 -0.5,0.7c-0.1,0.2 -0.2,0.3 -0.3,0.4c-0.2,0.2 -0.4,0.4 -0.5,0.7c-0.1,0.2 -0.2,0.5 -0.2,0.7c0,0 0,0.1 0,0.1c-0.2,0.4 -0.7,1.3 -2.3,2.5c-0.2,0.1 -0.3,0.3 -0.5,0.4c-0.7,0.6 -1.5,1.2 -1.8,1.5c-2,2.1 -0.2,4.8 0.8,4.6c-0.2,-1.3 0.8,-2.3 1.9,-3.2l0.4,-0.3c0.5,-0.4 3.3,-2.4 3.9,-3.1c0.5,-0.5 0.8,-1 0.9,-1.5c0,0 0,-0.1 0,-0.2c0,0 0,0 0,0c0.1,-0.2 0.1,-0.5 0.1,-0.7c-0.2,-1.4 -0.8,-2.2 -0.8,-2.2" class="st0"></path>
   </g>
   <g id="svg_42">
    <path id="svg_43" d="m27.3,34.4l2.8,-0.6l6.1,13.6c0.4,0.8 0.7,1.7 1.1,2.7c0.3,1 0.7,2.1 1.1,3.3c-0.1,-0.7 -0.2,-1.6 -0.2,-2.5c-0.1,-0.9 -0.1,-2 -0.1,-3.2l-0.4,-15.7l2.6,-0.6l6.7,14.4c0.3,0.7 0.6,1.4 0.9,2.2c0.3,0.8 0.6,1.8 1,2.8c-0.1,-1.1 -0.2,-2.3 -0.3,-3.5c-0.1,-1.2 -0.2,-1.9 -0.2,-2l-0.7,-15.6l2.7,-0.6l0.2,24l-2.5,0.6l-6.8,-14.4c-0.6,-1.2 -1,-2.1 -1.3,-2.9c-0.3,-0.8 -0.5,-1.5 -0.7,-2.2c0.1,0.9 0.2,1.7 0.3,2.6c0.1,0.9 0.1,1.8 0.1,2.7l0.1,16l-2.5,0.6l-10,-21.7z" class="st0"></path>
    <path id="svg_44" d="m54.5,28.2l2.5,-0.6l6.5,14.1c0.1,0.3 0.6,1.4 1.4,3.4c0.3,0.8 0.6,1.4 0.8,1.9c-0.1,-0.9 -0.2,-1.8 -0.2,-2.7c0,-1 -0.1,-2 -0.1,-3l-0.1,-15.6l2.4,-0.5l9,22l-2.7,0.6l-5.5,-14.5c0,-0.1 -0.1,-0.2 -0.1,-0.3c-0.6,-1.7 -1.1,-3.2 -1.6,-4.5c0.2,1.4 0.3,2.6 0.3,3.5c0.1,0.9 0.1,1.7 0.1,2.4l0.1,14.9l-2.4,0.6l-6.5,-14c0,-0.1 -0.1,-0.2 -0.2,-0.3c-0.8,-1.8 -1.5,-3.3 -1.9,-4.6c0.1,0.7 0.2,1.6 0.3,2.7c0.2,1.6 0.3,2.6 0.3,2.8l1.1,15l-2.4,0.5l-1.1,-23.8z" class="st0"></path>
    <path id="svg_45" d="m78.9,22.6l2.7,-0.6l11.4,21.4l-2.8,0.6l-2.3,-4.3l-7,1.6l0,4.9l-2.9,0.7l0.9,-24.3zm2.1,5.6l0,11.2l6,-1.4l-4.9,-10.1c-0.2,-0.4 -0.4,-0.9 -0.6,-1.4c-0.2,-0.6 -0.4,-1.2 -0.7,-1.9c0.1,0.7 0.1,1.3 0.2,1.9c0,0.6 0,1.1 0,1.7z" class="st0"></path>
   </g>
  </g>
 </g>
<text font-weight='bold' xml:space='preserve' text-anchor='start' font-family='Verdana, Geneva, sans-serif' font-size='10' y='97.99712' x='27.66515' stroke-width='0' stroke='#000' fill='#006bb3'>02/2024</text></svg>