<svg width="531" height="476" viewBox="0 0 531 476" fill="none" xmlns="http://www.w3.org/2000/svg">
<g filter="url(#filter0_d_9_2)">
<mask id="path-1-inside-1_9_2" fill="white">
<path d="M40 190C40 107.157 107.157 40 190 40H471C482.046 40 491 48.9543 491 60V286C491 368.843 423.843 436 341 436H190C107.157 436 40 368.843 40 286V190Z"/>
</mask>
<path d="M40 190C40 107.157 107.157 40 190 40H471C482.046 40 491 48.9543 491 60V286C491 368.843 423.843 436 341 436H190C107.157 436 40 368.843 40 286V190Z" stroke="white" stroke-width="50" shape-rendering="crispEdges" mask="url(#path-1-inside-1_9_2)"/>
</g>
<defs>
<filter id="filter0_d_9_2" x="0" y="0" width="531" height="476" filterUnits="userSpaceOnUse" color-interpolation-filters="sRGB">
<feFlood flood-opacity="0" result="BackgroundImageFix"/>
<feColorMatrix in="SourceAlpha" type="matrix" values="0 0 0 0 0 0 0 0 0 0 0 0 0 0 0 0 0 0 127 0" result="hardAlpha"/>
<feOffset/>
<feGaussianBlur stdDeviation="20"/>
<feComposite in2="hardAlpha" operator="out"/>
<feColorMatrix type="matrix" values="0 0 0 0 0.976471 0 0 0 0 0.835294 0 0 0 0 0.788235 0 0 0 0.5 0"/>
<feBlend mode="normal" in2="BackgroundImageFix" result="effect1_dropShadow_9_2"/>
<feBlend mode="normal" in="SourceGraphic" in2="effect1_dropShadow_9_2" result="shape"/>
</filter>
</defs>
</svg>
