<svg width="1280" height="720" viewBox="0 0 1280 720" fill="none" xmlns="http://www.w3.org/2000/svg">
<path fill-rule="evenodd" clip-rule="evenodd" d="M1280 0H0V720H1280V0ZM931 209C834.5 209 781 276.157 781 359V423C781 505.843 848.157 573 931 573H1044C1126.84 573 1194 505.843 1194 423V229C1194 217.954 1185.05 209 1174 209H931Z" fill="white"/>
<path fill-rule="evenodd" clip-rule="evenodd" d="M1280 0H0V720H1280V0ZM931 209C834.5 209 781 276.157 781 359V423C781 505.843 848.157 573 931 573H1044C1126.84 573 1194 505.843 1194 423V229C1194 217.954 1185.05 209 1174 209H931Z" fill="url(#paint0_linear_7_6)"/>
<g filter="url(#filter0_d_7_6)">
<mask id="path-2-inside-1_7_6" fill="white">
<path d="M763 344C763 261.157 830.157 194 913 194H1194C1205.05 194 1214 202.954 1214 214V440C1214 522.843 1146.84 590 1064 590H913C830.157 590 763 522.843 763 440V344Z"/>
</mask>
<path d="M763 344C763 261.157 830.157 194 913 194H1194C1205.05 194 1214 202.954 1214 214V440C1214 522.843 1146.84 590 1064 590H913C830.157 590 763 522.843 763 440V344Z" stroke="white" stroke-width="50" shape-rendering="crispEdges" mask="url(#path-2-inside-1_7_6)"/>
</g>
<defs>
<filter id="filter0_d_7_6" x="723" y="154" width="531" height="476" filterUnits="userSpaceOnUse" color-interpolation-filters="sRGB">
<feFlood flood-opacity="0" result="BackgroundImageFix"/>
<feColorMatrix in="SourceAlpha" type="matrix" values="0 0 0 0 0 0 0 0 0 0 0 0 0 0 0 0 0 0 127 0" result="hardAlpha"/>
<feOffset/>
<feGaussianBlur stdDeviation="20"/>
<feComposite in2="hardAlpha" operator="out"/>
<feColorMatrix type="matrix" values="0 0 0 0 0.976471 0 0 0 0 0.835294 0 0 0 0 0.788235 0 0 0 0.5 0"/>
<feBlend mode="normal" in2="BackgroundImageFix" result="effect1_dropShadow_7_6"/>
<feBlend mode="normal" in="SourceGraphic" in2="effect1_dropShadow_7_6" result="shape"/>
</filter>
<linearGradient id="paint0_linear_7_6" x1="640" y1="0" x2="640" y2="720" gradientUnits="userSpaceOnUse">
<stop stop-color="#FFF8F5"/>
<stop offset="1" stop-color="white" stop-opacity="0"/>
</linearGradient>
</defs>
</svg>
