<svg id="Layer_1" data-name="Layer 1" xmlns="http://www.w3.org/2000/svg" viewBox="0 0 600 420"><defs><style>.cls-1{fill:#fad6c9;}.cls-2{fill:#383b42;}.cls-3{fill:none;stroke:#fff;stroke-miterlimit:10;opacity:0;}</style></defs><path class="cls-1" d="M357.77,94.83s6.7-5.91,12.3-.77c5.44,5-1.71,12.29-1.71,12.29a34.23,34.23,0,0,1-10.59-11.52"/><path class="cls-2" d="M214.29,116.47c13.85-8.25,34.24-20.7,50-32.37A173.53,173.53,0,0,0,279.5,71a159.2,159.2,0,0,1,17.74-14.78,78.19,78.19,0,0,1,82.17-2.49l1.08.62.94-.93a3.43,3.43,0,0,0,.93-3,7.89,7.89,0,0,0-3.73-5.13c-23-15.1-55.4-15.57-80.46-1.25-8.87,5.14-16.81,11.83-24.43,18.21-5,4.2-10.12,8.56-15.41,12.29a282.53,282.53,0,0,1-28,16.65A246.29,246.29,0,0,0,202,108.06c-.63.47-1.4.94-2.18,1.56-18.06,12.76-73.15,51.82-34.4,109.71,1.87,2.8,4.05,4.36,6.07,4.36a2.64,2.64,0,0,0,1.56-.47c.93-.46,3.58-2.64.47-10a68.69,68.69,0,0,1-2.8-44.66c5.91-20.85,20.38-38.28,43.57-52.13"/><path class="cls-2" d="M392.94,358.46c-2.17-1.87-5.13-.31-6.22.15-2,.94-3.89,2-5.76,3a78.54,78.54,0,0,1-8.87,4.36c-12.92,5.45-28.63,6.38-47,2.49-50.42-10.43-93.21-50.58-106.6-99.91-6.07-22.1-5.91-44,.31-63.34,7.32-22.56,22.72-41.24,38.29-58.36l.31-.31c4.35-4.67,8.87-9.65,11.05-15.87l.77-2h-2.17c-3.58-.15-6.54,2-9,3.89-23.81,18.06-41.86,42.49-50.58,68.79-9.33,28.17-7.93,59,4.36,89.17a157.52,157.52,0,0,0,56.34,70.19,148,148,0,0,0,59.6,24.12,122.65,122.65,0,0,0,18.52,1.56c14.32,0,26.92-3,37.35-8.88,3.89-2.17,10.42-6.84,11.05-13.69V362a4.66,4.66,0,0,0-1.72-3.58"/><path class="cls-2" d="M444.14,291.54c-7.93-20.39-27.23-38.13-54.62-50.11a44.26,44.26,0,0,0,5.14-8.71,34.32,34.32,0,0,0,3.73-16.19c0-1.56-.31-3.27-.47-4.82v-.47a30.76,30.76,0,0,0-4.2-12.76,41.44,41.44,0,0,0-13.07-12.92,108,108,0,0,0-21.32-10.42A75.59,75.59,0,0,1,338.94,163c-.62-.63-1.4-1.09-2-1.71l-6.54-5.61a98.12,98.12,0,0,1-7.93-8.25c-1.71-2.17-3.43-4.66-5-7-.78-1.24-1.56-2.33-2.34-3.42a7.9,7.9,0,0,0-1.55-1.71,4,4,0,0,0-4.83-.32,3,3,0,0,0-1.09,3.74c0,.16,0,.16.16.31a53.81,53.81,0,0,0,4.51,10.74,74,74,0,0,0,14.79,19.14c2.95,2.8,6.07,5.6,9.18,8.09A81.44,81.44,0,0,0,347,184.32c4.2,2.18,8.56,4.2,12.76,6.07,1.86.93,3.89,1.71,5.76,2.64,5,2.34,10.73,5.29,14.93,10.12a15.23,15.23,0,0,1,3.27,5,26.45,26.45,0,0,1,1.56,9.18,17.47,17.47,0,0,1-1.87,7.94,39.69,39.69,0,0,1-13.69,15.4,3.89,3.89,0,0,0-1.87,5.14h0a19.79,19.79,0,0,0,2.65,5.13,5.7,5.7,0,0,0,5.6,2.65,11.71,11.71,0,0,1,3.27.31,22.34,22.34,0,0,0,3.26.31c7.94,0,34.86,15.25,45.91,38.44,8.09,16.81,5.76,33.15-7,48.87a101.4,101.4,0,0,1-7.78,8.4c-5.76,5.76-10.9,10.89-7,14.63a6.82,6.82,0,0,0,4.82,2,5.51,5.51,0,0,0,1.56-.15c10.11-1.72,25.52-21.64,28.32-27.71,7.94-16,8.56-32.05,2.64-47.15"/><path class="cls-2" d="M262.53,196.61l-1.09-.47a3.12,3.12,0,0,0-2.64.32,6,6,0,0,0-2.49,4.35,118.77,118.77,0,0,0,6.38,62.87c8.25,21.17,21.94,37.82,39.37,48.4,17.28,10.43,36.57,13.85,52.91,13.85,18.52,0,33.31-4.51,36.73-8.71l3-3.58-4.52,1.09h0A74.07,74.07,0,0,1,370.69,316c-19.45-.62-35.48-2.17-50.27-8.4-19.29-7.94-36.1-24.43-46.22-45.13-9-18.52-13.07-40.93-11.67-64.58Z"/><path class="cls-2" d="M371.47,127.51a8.39,8.39,0,0,0-5.14-.62,3.81,3.81,0,0,0-3.42,4c.16,4,5.45,9.65,8.71,10.11.32,0,.78.16,1.09.16,3.89,0,7.32-3.42,8.87-7.16a30.15,30.15,0,0,0,1.56-6.22,29.83,29.83,0,0,1,1.25-5.14c1.55-4.67,5-8.4,8.55-12.45,1.87-2,3.58-4.2,5.3-6.38a38.74,38.74,0,0,0,6.22-31.12A6.53,6.53,0,0,0,402.59,69,4.4,4.4,0,0,0,400,67.91a2.51,2.51,0,0,0-2,.94l-.46.46.15.62a26.68,26.68,0,0,1-3.11,22.73,49.4,49.4,0,0,1-8.25,8.87,54,54,0,0,0-8.56,9.33c-3.26,4.67-4.82,10.27-6.22,16.65"/><path class="cls-2" d="M355.6,140.12c-3.58,1.25-11.52,1.4-18.68-3.42-9.18-6.38-14.32-19.46-14.78-38-.16-3.26-1.72-4.35-3.27-4.35h0a3.68,3.68,0,0,0-3.43,3.42c-2.64,22.1,4.36,36.26,10.59,44,6.53,8.09,13.85,11.67,17,12h1.24a14,14,0,0,0,9.81-4,10.61,10.61,0,0,0,3.42-8.4l-.15-2Z"/><path class="cls-2" d="M363.38,107.13a7.52,7.52,0,0,0,3.11,1.09H367c2.49-.31,2.49-2,2.49-2.49C369.13,102.3,359,93.9,357.77,93.9h-.93v.93a14.73,14.73,0,0,0,6.54,12.3"/><rect class="cls-3" x="2.38" y="0.7" width="598.59" height="418.92"/></svg>