<svg viewBox="0 0 1000 1000" fill="none" xmlns="http://www.w3.org/2000/svg">
	<g clip-path="url(#clip0_1_93)">
		<path d="M243.256 119.978C243.256 186.239 189.538 239.957 123.278 239.957C57.0175 239.957 3.29932 186.239 3.29932 119.978C3.29932 53.7182 57.0175 0 123.278 0C189.538 0 243.256 53.7182 243.256 119.978Z" fill="currentColor"/>
		<path d="M619.956 119.978C619.956 186.239 566.238 239.957 499.978 239.957C433.718 239.957 380 186.239 380 119.978C380 53.7182 433.718 0 499.978 0C566.238 0 619.956 53.7182 619.956 119.978Z" fill="currentColor"/>
		<path d="M1000 119.978C1000 186.239 946.282 239.957 880.021 239.957C813.761 239.957 760.043 186.239 760.043 119.978C760.043 53.7182 813.761 0 880.021 0C946.282 0 1000 53.7182 1000 119.978Z" fill="currentColor"/>
		<path d="M1000 498.35C1000 564.611 946.282 618.329 880.021 618.329C813.761 618.329 760.043 564.611 760.043 498.35C760.043 432.09 813.761 378.372 880.021 378.372C946.282 378.372 1000 432.09 1000 498.35Z" fill="currentColor"/>
		<path d="M1000 880.022C1000 946.282 946.282 1000 880.021 1000C813.761 1000 760.043 946.282 760.043 880.022C760.043 813.762 813.761 760.043 880.021 760.043C946.282 760.043 1000 813.762 1000 880.022Z" fill="currentColor"/>
		<path d="M619.956 880.022C619.956 946.282 566.238 1000 499.978 1000C433.718 1000 380 946.282 380 880.022C380 813.762 433.718 760.043 499.978 760.043C566.238 760.043 619.956 813.762 619.956 880.022Z" fill="currentColor"/>
		<path d="M239.957 880.022C239.957 946.282 186.239 1000 119.978 1000C53.7182 1000 0 946.282 0 880.022C0 813.762 53.7182 760.043 119.978 760.043C186.239 760.043 239.957 813.762 239.957 880.022Z" fill="currentColor"/>
		<path d="M239.957 498.35C239.957 564.611 186.239 618.329 119.978 618.329C53.7182 618.329 0 564.611 0 498.35C0 432.09 53.7182 378.372 119.978 378.372C186.239 378.372 239.957 432.09 239.957 498.35Z" fill="currentColor"/>
		<path d="M619.956 498.35C619.956 564.611 566.238 618.329 499.978 618.329C433.718 618.329 380 564.611 380 498.35C380 432.09 433.718 378.372 499.978 378.372C566.238 378.372 619.956 432.09 619.956 498.35Z" fill="currentColor"/>
	</g>
	<defs>
		<clipPath id="clip0_1_93">
			<rect width="1000" height="1000"/>
		</clipPath>
	</defs>
</svg>