<svg xmlns="http://www.w3.org/2000/svg" xmlns:xlink="http://www.w3.org/1999/xlink" version="1.1" x="0px" y="0px" viewBox="0 0 32 32" style="enable-background:new 0 0 32 32;" fill="currentColor" xml:space="preserve"><g><path d="M10.41846,1C8.75098,1,7.39404,2.35693,7.39404,4.02441v0.27881H5.03076c-1.68604,0-3.05811,1.37207-3.05811,3.05811   v20.58057C1.97266,29.62793,3.34473,31,5.03076,31h21.93896c1.68555,0,3.05762-1.37207,3.05762-3.05811V7.36133   c0-1.68604-1.37207-3.05811-3.05762-3.05811h-2.36328V4.02441C24.60645,2.35693,23.25,1,21.58203,1   s-3.02539,1.35693-3.02539,3.02441v0.27881h-5.11377V4.02441C13.44287,2.35693,12.08594,1,10.41846,1z M9.39404,4.02441   C9.39404,3.45947,9.85352,3,10.41846,3s1.02441,0.45947,1.02441,1.02441v2.55762c0,0.56494-0.45947,1.02441-1.02441,1.02441   S9.39404,7.14697,9.39404,6.58203V4.02441z M28.02734,27.94189c0,0.5835-0.47461,1.05811-1.05762,1.05811H5.03076   c-0.5835,0-1.05811-0.47461-1.05811-1.05811V12.69336h24.05469V27.94189z M20.55664,4.02441C20.55664,3.45947,21.0166,3,21.58203,3   c0.56445,0,1.02441,0.45947,1.02441,1.02441v2.55762c0,0.56494-0.45996,1.02441-1.02441,1.02441   c-0.56543,0-1.02539-0.45947-1.02539-1.02441V4.02441z M18.55664,6.30322v0.27881c0,1.66748,1.35742,3.02441,3.02539,3.02441   s3.02441-1.35693,3.02441-3.02441V6.30322h2.36328c0.58301,0,1.05762,0.47461,1.05762,1.05811v3.33203H3.97266V7.36133   c0-0.5835,0.47461-1.05811,1.05811-1.05811h2.36328v0.27881c0,1.66748,1.35693,3.02441,3.02441,3.02441   s3.02441-1.35693,3.02441-3.02441V6.30322H18.55664z"></path><circle cx="8.39386" cy="17.18085" r="1.45325"></circle><circle cx="16" cy="17.18085" r="1.45325"></circle><circle cx="23.60614" cy="17.18085" r="1.45325"></circle><circle cx="8.39386" cy="24.5127" r="1.45325"></circle><circle cx="16" cy="24.5127" r="1.45325"></circle><circle cx="23.60614" cy="24.5127" r="1.45325"></circle></g></svg>