<svg version="1.1" x="0px" y="0px" viewBox="0 0 1000 1000" xmlns="http://www.w3.org/2000/svg"><g transform="matrix(9.523808, 0, 0, 9.523808, 23.809553, -9046.114258)"><path style="text-indent:0;text-transform:none;direction:ltr;block-progression:tb;baseline-shift:baseline;color:#000000;enable-background:accumulate;" d="m 11.999998,973.36218 c -2.1814195,0 -3.9999995,1.8186 -3.9999995,4 l 0,50.00002 c 0,2.1814 1.81858,4 3.9999995,4 l 76.000004,0 c 2.18142,0 4,-1.8186 4,-4 l 0,-50.00002 c 0,-2.1814 -1.81858,-4 -4,-4 l -76.000003,0 z m 2,4 72.000004,0 -34.375003,32.40632 c -0.76941,0.7249 -2.48059,0.7249 -3.25,0 l -34.375,-32.40632 z m -2,3.625 23.375,22.00002 -23.375,21.75 0,-43.75002 z m 76.000004,0 0,43.75002 -23.375003,-21.75 23.375003,-22.00002 z m -49.718753,24.75002 7.34375,6.9375 c 2.44657,2.3053 6.30343,2.3053 8.75,0 l 7.34375,-6.9375 23.218753,21.625 -69.875003,0 23.21875,-21.625 z" fill="currentColor" fill-opacity="1" stroke="none" marker="none" visibility="visible" display="inline" overflow="visible"/></g></svg>