<svg xmlns="http://www.w3.org/2000/svg" xmlns:xlink="http://www.w3.org/1999/xlink" width="24" height="24" viewBox="0 0 24 24" version="1.1">
    <title>Vector</title>
    <desc>Created using Figma</desc>
    <g id="Canvas" transform="translate(-785 877)">
        <g id="Vector">
            <use xlink:href="#path0_fill" transform="translate(785.724 -876.927)" fill="#FFFFFF"/>
        </g>
    </g>
    <defs>
        <path id="path0_fill" d="M 22.525 5.725C 21.925 3.425 19.425 1.025 17.125 0.525C 13.425 -0.175 9.62499 -0.175 5.92499 0.525C 3.62499 1.025 1.125 3.425 0.525 5.725C -0.175 8.925 -0.175 12.125 0.525 15.225C 1.025 17.425 3.42501 19.725 5.62501 20.325L 5.62501 22.825C 5.62501 23.725 6.725 24.225 7.325 23.525L 9.825 20.825C 10.425 20.825 10.925 20.825 11.525 20.825C 13.425 20.825 15.225 20.625 17.125 20.325C 19.425 19.825 21.925 17.425 22.525 15.125C 23.225 12.125 23.225 8.925 22.525 5.725ZM 20.525 14.825C 20.125 16.325 18.225 18.125 16.725 18.525C 14.725 18.925 12.725 19.025 10.725 19.025L 10.625 19.025C 10.325 19.325 8.725 20.925 8.725 20.925L 6.725 22.925C 6.625 23.125 6.325 22.925 6.325 22.725L 6.325 18.525C 6.325 18.425 6.325 18.425 6.225 18.425C 4.725 18.125 2.82499 16.225 2.42499 14.725C 1.82499 11.825 1.82499 8.92501 2.42499 6.12501C 2.82499 4.62501 4.725 2.82499 6.225 2.42499C 9.725 1.72499 13.225 1.72499 16.625 2.42499C 18.125 2.72499 20.025 4.62501 20.425 6.12501C 21.125 9.02501 21.125 11.925 20.525 14.825ZM 15.625 13.325C 15.325 13.125 14.925 12.825 14.625 12.625C 14.325 12.425 13.825 12.425 13.525 12.625C 13.225 12.925 13.025 13.425 12.525 13.525C 12.225 13.525 12.025 13.425 11.725 13.325C 10.225 12.725 9.225 11.525 8.725 9.92499C 8.625 9.72499 8.625 9.525 8.725 9.325C 8.825 9.225 8.82499 9.12501 8.92499 9.12501C 9.02499 9.02501 9.125 8.92499 9.225 8.92499C 9.625 8.62499 9.725 8.02501 9.525 7.62501C 9.125 6.92501 8.62501 6.22501 8.12501 5.62501C 7.82501 5.32501 7.525 5.22499 7.225 5.42499C 6.825 5.62499 6.425 5.925 6.025 6.325C 5.725 6.725 5.32501 7.325 5.62501 7.825C 5.82501 8.425 6.125 9.025 6.325 9.525C 6.925 10.725 7.625 11.825 8.525 12.825C 10.125 14.625 12.025 15.725 14.125 16.625C 14.325 16.725 14.525 16.725 14.825 16.825C 15.025 16.725 15.225 16.725 15.425 16.625C 16.025 16.325 16.525 15.725 16.825 15.125C 17.025 14.725 16.925 14.425 16.625 14.125C 16.225 13.825 15.925 13.525 15.625 13.325ZM 11.525 4.525C 11.425 4.525 14.325 4.625 11.525 4.525L 11.525 4.525ZM 11.525 4.525C 11.425 4.525 11.425 4.525 11.325 4.525C 11.125 4.525 10.925 4.72499 11.025 4.92499C 11.025 5.12499 11.325 5.225 11.525 5.225C 11.825 5.225 12.125 5.225 12.425 5.325C 14.525 5.725 16.125 7.425 16.425 9.525C 16.525 9.925 16.525 10.325 16.525 10.725C 16.525 10.925 16.625 11.125 16.825 11.125C 17.025 11.125 17.125 10.925 17.125 10.725C 17.125 10.225 17.025 9.725 16.925 9.325C 16.625 6.525 14.325 4.625 11.525 4.525ZM 15.125 10.025C 15.125 10.125 15.125 10.225 15.125 10.325C 15.225 10.625 15.625 10.525 15.725 10.325C 15.725 10.225 15.725 10.125 15.725 10.125C 15.725 9.92501 15.725 9.82501 15.725 9.62501C 15.725 9.52501 15.725 9.52499 15.725 9.42499C 15.525 8.12499 14.825 7.125 13.725 6.525C 13.125 6.225 12.525 6.125 11.925 6.025C 11.725 6.025 11.625 6.125 11.625 6.325C 11.625 6.525 11.725 6.62501 11.925 6.62501C 12.125 6.62501 12.225 6.625 12.425 6.725C 12.825 6.825 13.125 6.925 13.525 7.025C 14.025 7.325 14.525 7.725 14.825 8.325C 14.925 8.825 15.125 9.425 15.125 10.025ZM 14.025 10.025C 14.125 10.025 14.225 9.925 14.225 9.825C 14.225 9.725 14.225 9.625 14.225 9.525C 14.125 8.225 13.325 7.72501 12.225 7.62501C 12.025 7.62501 11.925 7.72499 11.825 7.92499C 11.825 8.12499 11.925 8.225 12.125 8.325C 12.325 8.325 12.425 8.32499 12.625 8.42499C 12.725 8.42499 12.925 8.52501 13.025 8.62501C 13.225 8.82501 13.425 9.025 13.525 9.325C 13.525 9.425 13.525 9.625 13.625 9.725C 13.625 9.925 13.825 10.025 14.025 10.025C 13.925 10.025 13.825 10.025 14.025 10.025Z"/>
    </defs>
</svg>